<svg width="400" height="90" viewBox="0 0 206 48" fill="none" xmlns="http://www.w3.org/2000/svg">
<path d="M41.5917 35V13.1818H44.8836V22.6634H55.7608V13.1818H59.0633V35H55.7608V25.4865H44.8836V35H41.5917ZM71.5542 35.3303C69.942 35.3303 68.5535 34.9858 67.3887 34.2969C66.2311 33.6009 65.3362 32.6243 64.7041 31.3672C64.0791 30.103 63.7666 28.6222 63.7666 26.9247C63.7666 25.2486 64.0791 23.7713 64.7041 22.4929C65.3362 21.2145 66.2169 20.2166 67.3461 19.4993C68.4825 18.782 69.8106 18.4233 71.3305 18.4233C72.2538 18.4233 73.1487 18.576 74.0152 18.8814C74.8816 19.1868 75.6593 19.6662 76.3483 20.3196C77.0372 20.973 77.5805 21.8217 77.9782 22.8658C78.376 23.9027 78.5748 25.1634 78.5748 26.6477V27.777H65.567V25.3906H75.4534C75.4534 24.5526 75.2829 23.8104 74.942 23.1641C74.6011 22.5107 74.1217 21.9957 73.5038 21.6193C72.893 21.2429 72.1757 21.0547 71.3518 21.0547C70.4569 21.0547 69.6757 21.2749 69.0081 21.7152C68.3475 22.1484 67.8362 22.7166 67.474 23.4197C67.1188 24.1158 66.9413 24.8722 66.9413 25.6889V27.5533C66.9413 28.647 67.1331 29.5774 67.5166 30.3445C67.9072 31.1115 68.4505 31.6974 69.1465 32.1023C69.8426 32.5 70.6558 32.6989 71.5862 32.6989C72.1899 32.6989 72.7403 32.6136 73.2375 32.4432C73.7346 32.2656 74.1643 32.0028 74.5265 31.6548C74.8887 31.3068 75.1657 30.8771 75.3575 30.3658L78.3724 30.9091C78.1309 31.7969 77.6977 32.5746 77.0727 33.2422C76.4548 33.9027 75.6771 34.4176 74.7396 34.7869C73.8092 35.1491 72.7474 35.3303 71.5542 35.3303ZM87.7712 35.3622C86.7342 35.3622 85.7967 35.1705 84.9587 34.7869C84.1206 34.3963 83.4565 33.8317 82.9665 33.093C82.4835 32.3544 82.242 31.4489 82.242 30.3764C82.242 29.4531 82.4196 28.6932 82.7747 28.0966C83.1298 27.5 83.6092 27.0277 84.2129 26.6797C84.8166 26.3317 85.4913 26.0689 86.2371 25.8913C86.9828 25.7138 87.7427 25.5788 88.5169 25.4865C89.497 25.3729 90.2925 25.2805 90.9033 25.2095C91.5141 25.1314 91.9579 25.0071 92.2349 24.8366C92.5119 24.6662 92.6504 24.3892 92.6504 24.0057V23.9311C92.6504 23.0007 92.3876 22.2798 91.8621 21.7685C91.3436 21.2571 90.5695 21.0014 89.5396 21.0014C88.4672 21.0014 87.622 21.2393 87.0041 21.7152C86.3933 22.1839 85.9707 22.706 85.7364 23.2812L82.7427 22.5994C83.0979 21.6051 83.6163 20.8026 84.2981 20.1918C84.9871 19.5739 85.779 19.1264 86.6739 18.8494C87.5687 18.5653 88.5098 18.4233 89.497 18.4233C90.1504 18.4233 90.8429 18.5014 91.5744 18.6577C92.3131 18.8068 93.002 19.0838 93.6412 19.4886C94.2875 19.8935 94.8166 20.4723 95.2285 21.2251C95.6405 21.9709 95.8464 22.9403 95.8464 24.1335V35H92.7356V32.7628H92.6078C92.4018 33.1747 92.0929 33.5795 91.681 33.9773C91.269 34.375 90.7399 34.7053 90.0936 34.968C89.4473 35.2308 88.6731 35.3622 87.7712 35.3622ZM88.4636 32.8054C89.3443 32.8054 90.0972 32.6314 90.7222 32.2834C91.3543 31.9354 91.8337 31.4808 92.1604 30.9197C92.4942 30.3516 92.6611 29.7443 92.6611 29.098V26.9886C92.5474 27.1023 92.3273 27.2088 92.0006 27.3082C91.681 27.4006 91.3152 27.4822 90.9033 27.5533C90.4913 27.6172 90.09 27.6776 89.6994 27.7344C89.3088 27.7841 88.9821 27.8267 88.7193 27.8622C88.1014 27.9403 87.5368 28.0717 87.0254 28.2564C86.5212 28.4411 86.1163 28.7074 85.8109 29.0554C85.5126 29.3963 85.3635 29.8509 85.3635 30.419C85.3635 31.2074 85.6547 31.804 86.2371 32.2088C86.8195 32.6065 87.5616 32.8054 88.4636 32.8054ZM104.175 13.1818V35H100.989V13.1818H104.175ZM116.998 18.6364V21.1932H108.06V18.6364H116.998ZM110.457 14.7159H113.643V30.1953C113.643 30.8132 113.735 31.2784 113.92 31.5909C114.104 31.8963 114.342 32.1058 114.633 32.2195C114.932 32.326 115.255 32.3793 115.603 32.3793C115.858 32.3793 116.082 32.3615 116.274 32.326C116.466 32.2905 116.615 32.2621 116.721 32.2408L117.297 34.8722C117.112 34.9432 116.849 35.0142 116.508 35.0852C116.167 35.1634 115.741 35.206 115.23 35.2131C114.392 35.2273 113.611 35.0781 112.886 34.7656C112.162 34.4531 111.576 33.9702 111.128 33.3168C110.681 32.6634 110.457 31.843 110.457 30.8558V14.7159ZM124.959 25.2841V35H121.774V13.1818H124.916V21.2997H125.119C125.502 20.419 126.088 19.7195 126.877 19.201C127.665 18.6825 128.695 18.4233 129.966 18.4233C131.088 18.4233 132.068 18.6541 132.906 19.1158C133.752 19.5774 134.405 20.2663 134.867 21.1825C135.335 22.0916 135.57 23.228 135.57 24.5916V35H132.384V24.9751C132.384 23.7749 132.075 22.8445 131.457 22.1839C130.84 21.5163 129.98 21.1825 128.879 21.1825C128.127 21.1825 127.452 21.3423 126.855 21.6619C126.266 21.9815 125.801 22.4503 125.46 23.0682C125.126 23.679 124.959 24.4176 124.959 25.2841ZM140.976 13.1818H144.971L151.917 30.142H152.173L159.119 13.1818H163.114V35H159.982V19.2116H159.779L153.345 34.968H150.745L144.311 19.201H144.108V35H140.976V13.1818ZM168.544 35V18.6364H171.73V35H168.544ZM170.153 16.1115C169.599 16.1115 169.123 15.9268 168.725 15.5575C168.335 15.1811 168.139 14.7337 168.139 14.2152C168.139 13.6896 168.335 13.2422 168.725 12.8729C169.123 12.4964 169.599 12.3082 170.153 12.3082C170.707 12.3082 171.179 12.4964 171.57 12.8729C171.968 13.2422 172.166 13.6896 172.166 14.2152C172.166 14.7337 171.968 15.1811 171.57 15.5575C171.179 15.9268 170.707 16.1115 170.153 16.1115ZM180.1 25.2841V35H176.915V18.6364H179.972V21.2997H180.175C180.551 20.4332 181.141 19.7372 181.943 19.2116C182.753 18.6861 183.772 18.4233 185.001 18.4233C186.116 18.4233 187.092 18.6577 187.931 19.1264C188.769 19.5881 189.418 20.277 189.88 21.1932C190.342 22.1094 190.573 23.2422 190.573 24.5916V35H187.387V24.9751C187.387 23.7891 187.078 22.8622 186.46 22.1946C185.842 21.5199 184.994 21.1825 183.914 21.1825C183.176 21.1825 182.519 21.3423 181.943 21.6619C181.375 21.9815 180.924 22.4503 180.59 23.0682C180.264 23.679 180.1 24.4176 180.1 25.2841ZM203.383 18.6364V21.1932H194.445V18.6364H203.383ZM196.842 14.7159H200.027V30.1953C200.027 30.8132 200.12 31.2784 200.304 31.5909C200.489 31.8963 200.727 32.1058 201.018 32.2195C201.316 32.326 201.64 32.3793 201.988 32.3793C202.243 32.3793 202.467 32.3615 202.659 32.326C202.85 32.2905 203 32.2621 203.106 32.2408L203.681 34.8722C203.497 34.9432 203.234 35.0142 202.893 35.0852C202.552 35.1634 202.126 35.206 201.615 35.2131C200.777 35.2273 199.995 35.0781 199.271 34.7656C198.546 34.4531 197.961 33.9702 197.513 33.3168C197.066 32.6634 196.842 31.843 196.842 30.8558V14.7159Z" fill="white"/>
<rect y="19.2" width="8.75043" height="9.59999" fill="#039855"/>
<rect x="26.2513" y="28.8" width="8.75044" height="9.59999" transform="rotate(180 26.2513 28.8)" fill="#027A48"/>
<path d="M8.75055 19.2L17.501 9.59998V19.2L8.75055 28.8V19.2Z" fill="#A6F4C5"/>
<path d="M17.5009 28.8L8.75043 38.4L8.75043 28.8L17.5009 19.2L17.5009 28.8Z" fill="#6CE9A6"/>
<path d="M0 19.2L17.5009 0V9.59999L8.75043 19.2H0Z" fill="#32D583"/>
<path d="M26.2513 28.8L8.75042 48L8.75042 38.4L17.5008 28.8L26.2513 28.8Z" fill="#12B76A"/>
</svg>
